<svg width="25" height="24" viewBox="0 0 25 24" fill="none" xmlns="http://www.w3.org/2000/svg">
<rect x="0.5" width="24" height="24" rx="12" fill="white"/>
<path d="M12.5 22.25C6.84614 22.25 2.25 17.6539 2.25 12C2.25 6.34614 6.84614 1.75 12.5 1.75C18.1539 1.75 22.75 6.34614 22.75 12C22.75 17.6539 18.1539 22.25 12.5 22.25ZM12.5 2.25C7.12386 2.25 2.75 6.62386 2.75 12C2.75 17.3761 7.12386 21.75 12.5 21.75C17.8761 21.75 22.25 17.3761 22.25 12C22.25 6.62386 17.8761 2.25 12.5 2.25Z" stroke="white"/>
<path d="M16.5 12.25H8.5C8.36614 12.25 8.25 12.1339 8.25 12C8.25 11.8661 8.36614 11.75 8.5 11.75H16.5C16.6339 11.75 16.75 11.8661 16.75 12C16.75 12.1339 16.6339 12.25 16.5 12.25Z" stroke="#BDBDBD"/>
<path d="M12.5 16.25C12.3661 16.25 12.25 16.1339 12.25 16V8C12.25 7.86614 12.3661 7.75 12.5 7.75C12.6339 7.75 12.75 7.86614 12.75 8V16C12.75 16.1339 12.6339 16.25 12.5 16.25Z" stroke="#BDBDBD"/>
</svg>
