<svg width="356" height="255" viewBox="0 0 356 255" fill="none" xmlns="http://www.w3.org/2000/svg">
<g filter="url(#filter0_d_436_9572)">
<rect x="10" y="6" width="336" height="235" rx="40" fill="#EDEDEE"/>
<path d="M203.75 81.5975L173.799 111.575L162.669 100.445L166.37 96.7437L173.799 104.172L200.049 77.9225L203.75 81.5975ZM197.949 94.8275C198.29 96.3238 198.5 97.8988 198.5 99.5C198.5 111.103 189.103 120.5 177.5 120.5C165.898 120.5 156.5 111.103 156.5 99.5C156.5 87.8975 165.898 78.5 177.5 78.5C181.648 78.5 185.48 79.7075 188.735 81.7812L192.515 78.0012C188.262 75.0087 183.091 73.25 177.5 73.25C163.01 73.25 151.25 85.01 151.25 99.5C151.25 113.99 163.01 125.75 177.5 125.75C191.99 125.75 203.75 113.99 203.75 99.5C203.75 96.3762 203.173 93.3837 202.175 90.6012L197.949 94.8275Z" fill="#45CBC2"/>
<path d="M70.0814 162.224L71.7294 161.328L73.9214 166.512C74.2734 167.376 74.6414 167.616 75.4734 167.616H75.6654L75.7934 168.816L75.6654 170H75.4734C74.5134 170 73.8094 169.648 73.2174 168.944C72.6734 169.472 71.7614 170.08 70.3214 170.08C68.3854 170.08 67.0414 169.088 66.6574 168.8L67.5214 167.12C67.8734 167.312 68.7854 167.824 70.0814 167.824C71.1214 167.824 71.8254 167.52 72.2734 167.232L70.0814 162.224ZM84.4659 167.616C85.0899 167.616 85.4739 167.216 85.4739 166.64C85.4739 165.984 84.7699 164.208 84.5939 163.824L86.2259 162.928C86.5459 163.568 87.2019 165.44 87.2019 166.736C87.2019 168.512 86.0979 169.984 84.4979 170H84.4659H84.4179C83.4259 169.984 82.7059 169.488 82.3219 168.624C81.7779 169.472 81.0899 169.984 80.1939 170H80.1139C79.2019 170 78.4659 169.472 78.1939 168.656C77.5059 169.536 76.6099 170 75.6019 170H75.5539L75.4259 168.816L75.5539 167.616H75.6339C76.3059 167.616 77.0099 167.28 77.3299 166.864C77.8579 166.256 78.0819 165.28 78.1619 164.976L79.8259 165.152C79.7299 165.488 79.5219 166.208 79.4899 166.72C79.4739 167.312 79.6819 167.616 80.1619 167.616H80.2099C80.7859 167.616 81.1859 167.296 81.4739 166.736C81.7939 166.096 81.9539 165.2 82.0179 164.864L83.6659 164.944C83.6179 165.232 83.4899 166 83.4899 166.448C83.4899 167.168 83.7779 167.616 84.4659 167.616ZM79.9859 161.344L81.2659 160.064C81.6979 160.48 82.1299 160.912 82.5459 161.344L81.2659 162.624C80.8499 162.192 80.4179 161.76 79.9859 161.344ZM81.6499 159.44L82.7699 158.32C83.1539 158.688 83.5219 159.072 83.9059 159.44C83.5219 159.824 83.1539 160.192 82.7699 160.56C82.4019 160.192 82.0179 159.824 81.6499 159.44ZM82.9939 161.344L84.2739 160.064C84.7059 160.48 85.1379 160.912 85.5539 161.344L84.2739 162.624C83.8579 162.192 83.4259 161.76 82.9939 161.344ZM102.951 164.336C104.615 166.912 105.351 167.616 106.423 167.616H106.679L106.807 168.816L106.679 170H106.423C105.367 170 104.487 169.376 103.495 168.128C102.743 169.472 100.887 170.192 98.6152 170.192H98.3112H98.1672H98.0712C94.3752 170.16 92.2152 168.912 92.0232 166.864C91.9272 165.824 92.2632 164.464 92.6632 163.568L94.1992 164.304C94.0232 164.848 93.7352 165.808 93.7832 166.4C93.9272 167.168 95.4632 167.808 98.3112 167.808V167.824H98.6152C100.487 167.824 101.687 167.328 102.055 166.848C101.895 165.84 100.935 164.448 98.7112 162.656L98.9352 160.576L104.871 158.08L105.511 159.984L100.887 161.952C101.255 162.256 102.215 163.2 102.951 164.336ZM106.522 170L106.57 167.616H106.858C107.626 167.616 108.346 167.168 108.906 166.112C109.85 164.352 110.746 163.2 111.962 163.136C115.05 162.976 115.994 168.4 113.578 169.856C112.666 170.416 111.162 169.872 109.45 168.8C108.778 169.616 107.866 170 106.826 170H106.522ZM110.474 166.912C111.706 167.664 112.698 168.064 112.986 167.856C113.69 167.408 113.242 165.28 112.042 165.28C111.626 165.28 111.114 165.68 110.474 166.912ZM118.306 158.16C118.546 159.952 118.69 163.552 118.658 165.616C118.626 167.152 118.818 167.616 120.05 167.616H120.13L120.258 168.816L120.13 170H120.05C117.634 170 116.738 168.592 116.738 165.92C116.722 163.52 116.594 160.464 116.322 158.592L118.306 158.16ZM119.975 170V167.616H120.087C122.615 167.616 123.239 167.296 123.351 166.528C123.431 166 123.319 165.296 123.223 164.608L124.871 164.288C125.079 165.376 125.095 166.56 125.095 166.928C125.159 167.216 125.463 167.616 126.279 167.616H126.375L126.503 168.816L126.375 170H126.279C125.399 170 124.647 169.536 124.167 168.896C123.543 169.68 122.407 170 120.087 170H119.975ZM118.631 172.704C119.063 172.256 119.527 171.808 119.959 171.36C120.407 171.808 120.855 172.256 121.287 172.704C120.855 173.152 120.407 173.584 119.959 174.032C119.527 173.584 119.063 173.152 118.631 172.704ZM121.431 172.704C121.863 172.256 122.327 171.808 122.759 171.36C123.207 171.808 123.655 172.256 124.087 172.704C123.655 173.152 123.207 173.584 122.759 174.032C122.327 173.584 121.863 173.152 121.431 172.704ZM126.209 170V167.616H126.977C129.169 167.616 129.873 167.232 129.873 166.512C129.857 165.968 129.137 164.112 128.993 163.824L130.689 162.896C130.993 163.552 131.649 165.36 131.649 166.624C131.633 168.784 130.209 170 127.329 170H126.209ZM125.201 172.384L126.481 171.104C126.913 171.52 127.345 171.952 127.761 172.384L126.481 173.664C126.065 173.232 125.633 172.8 125.201 172.384ZM126.881 174.256L128.001 173.136C128.385 173.504 128.753 173.888 129.137 174.256C128.753 174.64 128.385 175.008 128.001 175.376C127.633 175.008 127.249 174.64 126.881 174.256ZM128.241 172.384L129.521 171.104C129.953 171.52 130.385 171.952 130.801 172.384L129.521 173.664C129.105 173.232 128.673 172.8 128.241 172.384ZM138.79 158.16C139.03 159.952 139.174 163.552 139.142 165.616C139.11 167.152 139.302 167.616 140.534 167.616H140.614L140.742 168.816L140.614 170H140.534C138.118 170 137.222 168.592 137.222 165.92C137.206 163.52 137.078 160.464 136.806 158.592L138.79 158.16ZM140.459 170V167.616H140.795C141.563 167.616 142.267 167.168 142.843 166.112C143.819 164.352 144.763 163.168 145.995 163.136C147.403 163.104 148.155 164.08 148.699 165.648C149.163 167.056 149.419 167.616 149.915 167.616H150.107L150.235 168.816L150.107 170H149.915C149.243 170 148.683 169.616 148.299 168.992C148.155 169.36 147.835 169.68 147.515 169.856C146.619 170.416 145.131 169.888 143.403 168.8C142.731 169.616 141.803 170 140.763 170H140.459ZM144.411 166.912C145.803 167.936 147.099 168.112 147.387 168.016C147.499 167.168 147.019 165.28 145.979 165.28C145.531 165.28 145.003 165.776 144.411 166.912ZM158.903 167.616C159.527 167.616 159.911 167.216 159.911 166.64C159.911 165.984 159.207 164.208 159.031 163.824L160.663 162.928C160.983 163.568 161.639 165.44 161.639 166.736C161.639 168.512 160.535 169.984 158.935 170H158.903H158.855C157.863 169.984 157.143 169.488 156.759 168.624C156.215 169.472 155.527 169.984 154.631 170H154.551C153.639 170 152.903 169.472 152.631 168.656C151.943 169.536 151.047 170 150.039 170H149.991L149.863 168.816L149.991 167.616H150.071C150.743 167.616 151.447 167.28 151.767 166.864C152.295 166.256 152.519 165.28 152.599 164.976L154.263 165.152C154.167 165.488 153.959 166.208 153.927 166.72C153.911 167.312 154.119 167.616 154.599 167.616H154.647C155.223 167.616 155.623 167.296 155.911 166.736C156.231 166.096 156.391 165.2 156.455 164.864L158.103 164.944C158.055 165.232 157.927 166 157.927 166.448C157.927 167.168 158.215 167.616 158.903 167.616ZM154.423 161.344L155.703 160.064C156.135 160.48 156.567 160.912 156.983 161.344L155.703 162.624C155.287 162.192 154.855 161.76 154.423 161.344ZM156.087 159.44L157.207 158.32C157.591 158.688 157.959 159.072 158.343 159.44C157.959 159.824 157.591 160.192 157.207 160.56C156.839 160.192 156.455 159.824 156.087 159.44ZM157.431 161.344L158.711 160.064C159.143 160.48 159.575 160.912 159.991 161.344L158.711 162.624C158.295 162.192 157.863 161.76 157.431 161.344ZM169.117 165.68C168.685 166.672 168.285 167.648 168.253 168.704C168.205 170.592 169.373 171.456 171.485 171.456C173.277 171.456 174.717 170.72 175.277 169.856C175.293 169.808 174.509 169.616 173.421 169.312C171.661 168.8 171.005 168.192 171.117 166.672C171.261 164.112 173.485 161.76 175.901 161.856C176.493 161.872 177.181 162.08 177.421 162.32L176.749 164.384C176.541 164.304 176.141 164.224 175.837 164.224C174.461 164.176 173.197 165.136 172.909 166.224C172.797 166.672 173.053 166.912 174.685 167.296C176.797 167.792 177.165 168.528 177.181 169.296C177.197 171.632 174.749 173.824 171.485 173.824C168.509 173.824 166.253 172.048 166.477 168.704C166.557 167.36 167.165 165.856 167.565 164.976L169.117 165.68ZM179.126 169.904C179.478 167.52 179.158 160.464 178.838 158.608L180.838 158.144C181.094 159.952 181.43 167.072 181.014 170.112L179.126 169.904ZM187.096 170C186.744 170 186.44 169.936 186.152 169.808C186.024 171.872 184.2 173.616 181.624 174.672L180.648 172.656C182.808 171.776 184.472 170.384 184.472 169.568C184.472 168.896 183.688 166.208 183.544 165.68L185.336 164.976C185.496 165.424 185.624 165.904 185.752 166.4C186.024 167.28 186.408 167.616 187.096 167.616H187.24L187.368 168.816L187.24 170H187.096ZM187.1 170V167.616H187.948C189.532 167.616 190.108 167.248 190.108 166.592C190.108 166.064 189.388 164.16 189.244 163.824L190.924 162.896C191.228 163.552 191.9 165.456 191.884 166.72C191.884 168.88 190.46 170 187.948 170H187.1ZM187.644 172.704C188.156 172.208 188.636 171.728 189.132 171.232L190.604 172.704C190.108 173.2 189.628 173.696 189.132 174.176C188.636 173.696 188.156 173.2 187.644 172.704ZM198.965 164.304C198.789 164.848 198.501 165.808 198.549 166.4C198.693 167.168 200.213 167.792 203.029 167.808C207.141 167.792 208.213 167.088 208.997 164.96L210.661 165.152C210.069 166.928 210.357 167.616 211.413 167.616L211.541 168.8L211.413 170C210.245 170 209.205 169.248 209.013 168.112C207.653 169.712 205.765 170.176 203.077 170.192C199.237 170.208 196.981 168.96 196.789 166.864C196.693 165.824 197.029 164.464 197.429 163.568L198.965 164.304ZM200.821 163.408C201.253 162.96 201.717 162.512 202.149 162.064C202.597 162.512 203.045 162.96 203.477 163.408C203.045 163.856 202.597 164.288 202.149 164.736C201.717 164.288 201.253 163.856 200.821 163.408ZM203.605 163.408C204.037 162.96 204.501 162.512 204.933 162.064C205.381 162.512 205.829 162.96 206.261 163.408C205.829 163.856 205.381 164.288 204.933 164.736C204.501 164.288 204.037 163.856 203.605 163.408ZM211.256 170V167.616H211.496C213.88 167.616 215.448 167.44 216.2 166.768C214.472 166.928 212.84 166.464 212.232 165.232C211.304 163.28 212.712 160.112 214.92 160.112C216.92 160.112 218.296 162.832 218.216 165.616C218.136 168.32 216.072 170 211.464 170H211.256ZM212.184 157.92C212.616 157.472 213.08 157.024 213.512 156.576C213.96 157.024 214.408 157.472 214.84 157.92C214.408 158.368 213.96 158.8 213.512 159.248C213.08 158.8 212.616 158.368 212.184 157.92ZM213.656 163.92C214.04 164.416 215.288 164.688 216.552 164.56C216.296 163.36 215.688 162.304 214.904 162.16C213.944 161.984 213.256 163.36 213.656 163.92ZM214.968 157.92C215.4 157.472 215.864 157.024 216.296 156.576C216.744 157.024 217.192 157.472 217.624 157.92C217.192 158.368 216.744 158.8 216.296 159.248C215.864 158.8 215.4 158.368 214.968 157.92ZM219.395 172.608C222.275 171.984 223.875 171.216 224.403 170.016C222.403 169.984 220.675 169.76 220.035 168.4C219.107 166.416 220.595 163.008 222.787 163.008C224.515 163.008 225.811 165.152 226.131 167.616H226.803L226.931 168.816L226.803 170H226.083C225.555 172.384 223.395 174.048 220.131 174.672L219.395 172.608ZM221.507 167.056C221.827 167.488 223.011 167.6 224.435 167.616C224.163 166.352 223.539 165.296 222.755 165.152C221.811 164.96 221.107 166.496 221.507 167.056ZM226.6 170L226.648 167.616H226.936C227.704 167.616 228.424 167.168 228.984 166.112C229.928 164.352 230.824 163.2 232.04 163.136C235.128 162.976 236.072 168.4 233.656 169.856C232.744 170.416 231.24 169.872 229.528 168.8C228.856 169.616 227.944 170 226.904 170H226.6ZM230.552 166.912C231.784 167.664 232.776 168.064 233.064 167.856C233.768 167.408 233.32 165.28 232.12 165.28C231.704 165.28 231.192 165.68 230.552 166.912ZM237.961 172.656C240.121 171.776 241.785 170.384 241.785 169.568C241.785 168.896 241.001 166.208 240.857 165.68L242.649 164.976C243.161 166.464 243.481 168.272 243.481 169.568C243.481 171.728 241.609 173.568 238.937 174.672L237.961 172.656ZM244.661 172.608C247.541 171.984 249.141 171.216 249.669 170.016C247.669 169.984 245.941 169.76 245.301 168.4C244.373 166.416 245.861 163.008 248.053 163.008C249.781 163.008 251.077 165.152 251.397 167.616H252.069L252.197 168.816L252.069 170H251.349C250.821 172.384 248.661 174.048 245.397 174.672L244.661 172.608ZM246.773 167.056C247.093 167.488 248.277 167.6 249.701 167.616C249.429 166.352 248.805 165.296 248.021 165.152C247.077 164.96 246.373 166.496 246.773 167.056ZM251.865 170V167.616H251.961C253.609 167.616 254.249 167.296 254.361 166.528C254.441 166 254.329 165.296 254.217 164.608L255.881 164.288C256.073 165.376 256.089 166.56 256.089 166.928C256.153 167.216 256.489 167.616 257.289 167.616H257.385L257.513 168.816L257.385 170H257.289C256.409 170 255.657 169.536 255.161 168.896C254.537 169.664 253.481 170 251.961 170H251.865ZM252.441 172.704C252.953 172.208 253.433 171.728 253.929 171.232L255.401 172.704C254.905 173.2 254.425 173.696 253.929 174.176C253.433 173.696 252.953 173.2 252.441 172.704ZM257.225 170V167.616H257.417C257.897 167.616 258.361 167.616 258.809 167.6C258.553 167.168 258.393 166.688 258.361 166.128C258.233 164.224 259.689 162.464 261.577 162.24C262.793 162.112 263.977 162.672 264.857 163.456L264.089 165.056C263.337 164.736 262.505 164.528 261.753 164.624C260.729 164.72 259.993 165.392 260.041 165.968C260.089 166.688 261.097 167.376 262.313 167.36C263.337 167.216 264.185 167.024 264.921 166.768L265.369 168.88C263.737 169.536 261.321 170 257.417 170H257.225ZM275.893 170C275.541 170 275.237 169.936 274.949 169.808C274.821 171.872 272.997 173.616 270.421 174.672L269.445 172.656C271.605 171.776 273.269 170.384 273.269 169.568C273.269 168.896 272.485 166.208 272.341 165.68L274.133 164.976C274.293 165.424 274.421 165.904 274.549 166.4C274.821 167.28 275.205 167.616 275.893 167.616H276.037L276.165 168.816L276.037 170H275.893ZM271.461 162.032C271.973 161.536 272.453 161.056 272.949 160.56L274.421 162.032C273.925 162.528 273.445 163.024 272.949 163.504C272.453 163.024 271.973 162.528 271.461 162.032ZM275.897 170L275.945 167.616H276.233C277.001 167.616 277.721 167.168 278.281 166.112C279.225 164.352 280.121 163.2 281.337 163.136C284.425 162.976 285.369 168.4 282.953 169.856C282.041 170.416 280.537 169.872 278.825 168.8C278.153 169.616 277.241 170 276.201 170H275.897ZM279.849 166.912C281.081 167.664 282.073 168.064 282.361 167.856C283.065 167.408 282.617 165.28 281.417 165.28C281.001 165.28 280.489 165.68 279.849 166.912ZM283.555 172.656C285.715 171.776 287.379 170.384 287.379 169.568C287.379 168.896 286.595 166.208 286.451 165.68L288.243 164.976C288.755 166.464 289.075 168.272 289.075 169.568C289.075 171.728 287.203 173.568 284.531 174.672L283.555 172.656Z" fill="#064247"/>
</g>
<defs>
<filter id="filter0_d_436_9572" x="0" y="0" width="356" height="255" filterUnits="userSpaceOnUse" color-interpolation-filters="sRGB">
<feFlood flood-opacity="0" result="BackgroundImageFix"/>
<feColorMatrix in="SourceAlpha" type="matrix" values="0 0 0 0 0 0 0 0 0 0 0 0 0 0 0 0 0 0 127 0" result="hardAlpha"/>
<feOffset dy="4"/>
<feGaussianBlur stdDeviation="5"/>
<feComposite in2="hardAlpha" operator="out"/>
<feColorMatrix type="matrix" values="0 0 0 0 0 0 0 0 0 0 0 0 0 0 0 0 0 0 0.07 0"/>
<feBlend mode="normal" in2="BackgroundImageFix" result="effect1_dropShadow_436_9572"/>
<feBlend mode="normal" in="SourceGraphic" in2="effect1_dropShadow_436_9572" result="shape"/>
</filter>
</defs>
</svg>
