<svg width="63" height="63" viewBox="0 0 63 63" fill="none" xmlns="http://www.w3.org/2000/svg">
<path d="M57.75 13.5975L27.7987 43.575L16.6687 32.445L20.37 28.7437L27.7987 36.1725L54.0488 9.9225L57.75 13.5975ZM51.9488 26.8275C52.29 28.3238 52.5 29.8988 52.5 31.5C52.5 43.1025 43.1025 52.5 31.5 52.5C19.8975 52.5 10.5 43.1025 10.5 31.5C10.5 19.8975 19.8975 10.5 31.5 10.5C35.6475 10.5 39.48 11.7075 42.735 13.7812L46.515 10.0012C42.2625 7.00875 37.0912 5.25 31.5 5.25C17.01 5.25 5.25 17.01 5.25 31.5C5.25 45.99 17.01 57.75 31.5 57.75C45.99 57.75 57.75 45.99 57.75 31.5C57.75 28.3762 57.1725 25.3837 56.175 22.6012L51.9488 26.8275Z" fill="#45CBC2"/>
</svg>
